# xmcd
#
# Track frame offsets: 
#        150
#        1816
#        15367
#        33658
#        54168
#        55434
#        71831
#        88963
#        106149
#        116256
#        134550
#        151031
#        151647
#        170679
#        187262
#        206281
#        216306
#        233790
#
# Disc length: 3397 seconds
#
# Revision: 3
# Processed by: cddbd v1.5.2PL0 Copyright (c) Steve Scherf et al.
# Submitted via: ExactAudioCopyFreeDBPlugin 1.0
#
DISCID=ec0d4312
DTITLE=Pal One - Pal Wolf
DYEAR=2005
DGENRE=Rap
TTITLE0=Intro
TTITLE1=Wanns kommt
TTITLE2=Dassis der...
TTITLE3=Index P.O.
TTITLE4=Atomsfear (Skit)
TTITLE5=Ist das wichtig
TTITLE6=Wer?!?
TTITLE7=Mehr vom Rap
TTITLE8=Erkenntnis (Skit)
TTITLE9=Keine raffts
TTITLE10=Freiflieger feat. Mnemonic
TTITLE11=Bestie (Skit)
TTITLE12=Gesichter
TTITLE13=For Real
TTITLE14=His Madnezz
TTITLE15=I Care
TTITLE16=Für dich
TTITLE17=Outro
EXTD=YEAR: 2005
EXTT0=
EXTT1=
EXTT2=
EXTT3=
EXTT4=
EXTT5=
EXTT6=
EXTT7=
EXTT8=
EXTT9=
EXTT10=
EXTT11=
EXTT12=
EXTT13=
EXTT14=
EXTT15=
EXTT16=
EXTT17=
PLAYORDER=
